{
  "accessors": [
    {
      "bufferView": 2,
      "componentType": 5126,
      "count": 16313,
      "max": [
        1.0446219444274902,
        3.7793641090393066,
        0.15561501681804657
      ],
      "min": [
        -0.9425671696662903,
        2.7817914485931396,
        -1.8315746784210205
      ],
      "type": "VEC3"
    },
    {
      "bufferView": 2,
      "byteOffset": 195756,
      "componentType": 5126,
      "count": 16313,
      "max": [
        0.9951962828636169,
        1.0,
        0.9951962828636169
      ],
      "min": [
        -0.9951962828636169,
        0.09789525717496872,
        -0.9951962828636169
      ],
      "type": "VEC3"
    },
    {
      "bufferView": 1,
      "componentType": 5126,
      "count": 16313,
      "max": [
        1.0000001192092896,
        0.5
      ],
      "min": [
        0.0,
        -1.1920928955078125e-07
      ],
      "type": "VEC2"
    },
    {
      "bufferView": 0,
      "componentType": 5125,
      "count": 95232,
      "type": "SCALAR"
    },
    {
      "bufferView": 2,
      "byteOffset": 391512,
      "componentType": 5126,
      "count": 65532,
      "max": [
        3.551234245300293,
        4.6946187019348145,
        6.350295066833496
      ],
      "min": [
        -3.7350778579711914,
        -9.655547142028809,
        -6.05383825302124
      ],
      "type": "VEC3"
    },
    {
      "bufferView": 2,
      "byteOffset": 1177896,
      "componentType": 5126,
      "count": 65532,
      "max": [
        0.9999966621398926,
        0.9999699592590332,
        0.9763919711112976
      ],
      "min": [
        -0.9999966621398926,
        -0.9999699592590332,
        -0.9810989499092102
      ],
      "type": "VEC3"
    },
    {
      "bufferView": 1,
      "byteOffset": 130504,
      "componentType": 5126,
      "count": 65532,
      "max": [
        1.0000001192092896,
        1.0
      ],
      "min": [
        0.0,
        -2.384185791015625e-07
      ],
      "type": "VEC2"
    },
    {
      "bufferView": 0,
      "byteOffset": 380928,
      "componentType": 5125,
      "count": 174663,
      "type": "SCALAR"
    },
    {
      "bufferView": 2,
      "byteOffset": 1964280,
      "componentType": 5126,
      "count": 2195,
      "max": [
        0.16999022662639618,
        -2.049076557159424,
        -5.886295795440674
      ],
      "min": [
        -0.2703913450241089,
        -2.9731907844543457,
        -6.089411735534668
      ],
      "type": "VEC3"
    },
    {
      "bufferView": 2,
      "byteOffset": 1990620,
      "componentType": 5126,
      "count": 2195,
      "max": [
        0.6467219591140747,
        0.39729592204093933,
        -0.7627259492874146
      ],
      "min": [
        -0.6465926766395569,
        -0.40209847688674927,
        -1.0
      ],
      "type": "VEC3"
    },
    {
      "bufferView": 1,
      "byteOffset": 654760,
      "componentType": 5126,
      "count": 2195,
      "max": [
        1.0000001192092896,
        0.9900000095367432
      ],
      "min": [
        0.010000006295740604,
        -2.384185791015625e-07
      ],
      "type": "VEC2"
    },
    {
      "bufferView": 0,
      "byteOffset": 1079580,
      "componentType": 5125,
      "count": 11193,
      "type": "SCALAR"
    },
    {
      "bufferView": 2,
      "byteOffset": 2016960,
      "componentType": 5126,
      "count": 18761,
      "max": [
        2.7237253189086914,
        2.95330548286438,
        2.3410720825195313
      ],
      "min": [
        -2.8241965770721436,
        -7.914234638214111,
        -2.3079137802124023
      ],
      "type": "VEC3"
    },
    {
      "bufferView": 2,
      "byteOffset": 2242092,
      "componentType": 5126,
      "count": 18761,
      "max": [
        0.9999916553497314,
        0.9999680519104004,
        0.3191961944103241
      ],
      "min": [
        -0.9999916553497314,
        -0.9999680519104004,
        -0.4777868688106537
      ],
      "type": "VEC3"
    },
    {
      "bufferView": 1,
      "byteOffset": 672320,
      "componentType": 5126,
      "count": 18761,
      "max": [
        1.0000001192092896,
        0.0
      ],
      "min": [
        0.0,
        -2.384185791015625e-07
      ],
      "type": "VEC2"
    },
    {
      "bufferView": 0,
      "byteOffset": 1124352,
      "componentType": 5125,
      "count": 110592,
      "type": "SCALAR"
    },
    {
      "bufferView": 2,
      "byteOffset": 2467224,
      "componentType": 5126,
      "count": 65532,
      "max": [
        2.1207761764526367,
        3.1270241737365723,
        5.382002353668213
      ],
      "min": [
        -2.463172197341919,
        -7.242875099182129,
        -1.8880615234375
      ],
      "type": "VEC3"
    },
    {
      "bufferView": 2,
      "byteOffset": 3253608,
      "componentType": 5126,
      "count": 65532,
      "max": [
        1.0,
        1.0,
        1.0
      ],
      "min": [
        -1.0,
        -0.9998307228088379,
        -1.0
      ],
      "type": "VEC3"
    },
    {
      "bufferView": 1,
      "byteOffset": 822408,
      "componentType": 5126,
      "count": 65532,
      "max": [
        1.0000001192092896,
        0.9900000095367432
      ],
      "min": [
        0.0,
        -1.1920928955078125e-07
      ],
      "type": "VEC2"
    },
    {
      "bufferView": 0,
      "byteOffset": 1566720,
      "componentType": 5125,
      "count": 374658,
      "type": "SCALAR"
    },
    {
      "bufferView": 2,
      "byteOffset": 4039992,
      "componentType": 5126,
      "count": 7292,
      "max": [
        2.380993366241455,
        3.127023696899414,
        4.876599311828613
      ],
      "min": [
        -2.481464385986328,
        -7.242875099182129,
        -1.8763175010681152
      ],
      "type": "VEC3"
    },
    {
      "bufferView": 2,
      "byteOffset": 4127496,
      "componentType": 5126,
      "count": 7292,
      "max": [
        1.0,
        1.0,
        1.0
      ],
      "min": [
        -1.0,
        -0.9476886987686157,
        -0.997338593006134
      ],
      "type": "VEC3"
    },
    {
      "bufferView": 1,
      "byteOffset": 1346664,
      "componentType": 5126,
      "count": 7292,
      "max": [
        1.0000001192092896,
        0.9899545311927795
      ],
      "min": [
        0.0,
        -2.384185791015625e-07
      ],
      "type": "VEC2"
    },
    {
      "bufferView": 0,
      "byteOffset": 3065352,
      "componentType": 5125,
      "count": 33918,
      "type": "SCALAR"
    }
  ],
  "asset": {
    "extras": {
      "author": "Piterus13 (https://sketchfab.com/piotrekmiratynski)",
      "license": "CC-BY-4.0 (http://creativecommons.org/licenses/by/4.0/)",
      "source": "https://sketchfab.com/3d-models/rocket--sub-470a7baf6def4a47b5b2de944481644f",
      "title": "Rocket_ Sub"
    },
    "generator": "Sketchfab-16.68.0",
    "version": "2.0"
  },
  "bufferViews": [
    {
      "buffer": 0,
      "byteLength": 3201024,
      "name": "floatBufferViews",
      "target": 34963
    },
    {
      "buffer": 0,
      "byteLength": 1405000,
      "byteOffset": 3201024,
      "byteStride": 8,
      "name": "floatBufferViews",
      "target": 34962
    },
    {
      "buffer": 0,
      "byteLength": 4215000,
      "byteOffset": 4606024,
      "byteStride": 12,
      "name": "floatBufferViews",
      "target": 34962
    }
  ],
  "buffers": [
    {
      "byteLength": 8821024,
      "uri": "scene.bin"
    }
  ],
  "materials": [
    {
      "doubleSided": true,
      "name": "Material.004"
    },
    {
      "doubleSided": true,
      "name": "Material.001",
      "pbrMetallicRoughness": {
        "baseColorFactor": [
          0.800339,
          0.000712572,
          0.0,
          1.0
        ],
        "metallicFactor": 0.84252,
        "roughnessFactor": 0.38189
      }
    },
    {
      "doubleSided": true,
      "name": "Material.002",
      "pbrMetallicRoughness": {
        "baseColorFactor": [
          0.8,
          0.8,
          0.8,
          1.0
        ],
        "metallicFactor": 0.322835,
        "roughnessFactor": 0.216535
      }
    },
    {
      "doubleSided": true,
      "name": "Material.003",
      "pbrMetallicRoughness": {
        "baseColorFactor": [
          0.56798,
          0.56798,
          0.56798,
          1.0
        ],
        "roughnessFactor": 0.492126
      }
    }
  ],
  "meshes": [
    {
      "name": "Object_0",
      "primitives": [
        {
          "attributes": {
            "NORMAL": 1,
            "POSITION": 0,
            "TEXCOORD_0": 2
          },
          "indices": 3,
          "material": 0,
          "mode": 4
        }
      ]
    },
    {
      "name": "Object_1",
      "primitives": [
        {
          "attributes": {
            "NORMAL": 5,
            "POSITION": 4,
            "TEXCOORD_0": 6
          },
          "indices": 7,
          "material": 1,
          "mode": 4
        }
      ]
    },
    {
      "name": "Object_2",
      "primitives": [
        {
          "attributes": {
            "NORMAL": 9,
            "POSITION": 8,
            "TEXCOORD_0": 10
          },
          "indices": 11,
          "material": 1,
          "mode": 4
        }
      ]
    },
    {
      "name": "Object_3",
      "primitives": [
        {
          "attributes": {
            "NORMAL": 13,
            "POSITION": 12,
            "TEXCOORD_0": 14
          },
          "indices": 15,
          "material": 2,
          "mode": 4
        }
      ]
    },
    {
      "name": "Object_4",
      "primitives": [
        {
          "attributes": {
            "NORMAL": 17,
            "POSITION": 16,
            "TEXCOORD_0": 18
          },
          "indices": 19,
          "material": 3,
          "mode": 4
        }
      ]
    },
    {
      "name": "Object_5",
      "primitives": [
        {
          "attributes": {
            "NORMAL": 21,
            "POSITION": 20,
            "TEXCOORD_0": 22
          },
          "indices": 23,
          "material": 3,
          "mode": 4
        }
      ]
    }
  ],
  "nodes": [
    {
      "children": [
        1
      ],
      "matrix": [
        1.0,
        0.0,
        0.0,
        0.0,
        0.0,
        2.220446049250313e-16,
        -1.0,
        0.0,
        0.0,
        1.0,
        2.220446049250313e-16,
        0.0,
        0.0,
        0.0,
        0.0,
        1.0
      ],
      "name": "Sketchfab_model"
    },
    {
      "children": [
        2
      ],
      "name": "root"
    },
    {
      "children": [
        3
      ],
      "matrix": [
        1.0,
        0.0,
        0.0,
        0.0,
        0.0,
        2.220446049250313e-16,
        1.0,
        0.0,
        0.0,
        -1.0,
        2.220446049250313e-16,
        0.0,
        0.0,
        0.0,
        0.0,
        1.0
      ],
      "name": "GLTF_SceneRootNode"
    },
    {
      "children": [
        4,
        5,
        6,
        7,
        8,
        9
      ],
      "matrix": [
        0.34391623735427856,
        0.0,
        0.0,
        0.0,
        0.0,
        0.0,
        0.17557057738304138,
        0.0,
        0.0,
        -0.34391623735427856,
        0.0,
        0.0,
        -0.017549030482769012,
        0.40803655982017517,
        0.4354965388774872,
        1.0
      ],
      "name": "Sphere_0"
    },
    {
      "mesh": 0,
      "name": "Object_4"
    },
    {
      "mesh": 1,
      "name": "Object_5"
    },
    {
      "mesh": 2,
      "name": "Object_6"
    },
    {
      "mesh": 3,
      "name": "Object_7"
    },
    {
      "mesh": 4,
      "name": "Object_8"
    },
    {
      "mesh": 5,
      "name": "Object_9"
    }
  ],
  "scene": 0,
  "scenes": [
    {
      "name": "Sketchfab_Scene",
      "nodes": [
        0
      ]
    }
  ]
}
